<svg width="213" height="233" viewBox="0 0 213 233" fill="none" xmlns="http://www.w3.org/2000/svg">
<path fill-rule="evenodd" clip-rule="evenodd" d="M162.456 88.831C161.395 94.1011 160.657 96.1814 159.18 97.9843C155.073 103.809 148.475 103.809 143.306 104.364C121.296 105.566 76.0739 107.646 61.4923 103.717C56.924 102.792 50.9252 100.573 49.8639 87.3517C47.7874 67.797 47.4644 46.578 48.8025 25.8675C49.7716 6.12788 54.9398 2.2909 71.4595 0.996498C97.9002 -0.15922 112.251 -0.529047 141.922 1.08896C152.951 1.82862 159.318 4.46365 161.349 14.3104C163.333 24.8505 163.61 39.7362 163.979 52.634C164.118 66.1327 163.564 77.9211 162.456 88.831ZM100.623 28.5488C73.8129 31.7848 67.5372 27.1619 59.5081 35.5293C58.6775 26.6997 58.6774 20.6899 59.4619 16.4831C60.2925 11.7216 62.0922 9.41013 64.4917 8.06949C71.0442 5.0184 74.5973 7.56097 79.9039 11.3517C87.9331 16.8529 98.131 25.2666 100.623 28.5488ZM61.1693 50.0452C60.8463 50.0452 66.3836 49.3979 72.4747 49.8602C81.0575 50.0452 92.9166 50.5999 88.3022 59.8919C101.223 52.7726 111.79 62.4807 115.343 66.7799C116.589 67.8432 120.05 74.269 120.557 81.4344C120.465 91.4198 116.819 99.8797 105.237 101.498C99.8383 101.96 94.9931 101.868 90.8401 101.22C85.4874 100.804 80.9653 97.9843 77.1814 93.7775C74.4589 90.0792 72.1055 85.6875 70.1674 81.0646C65.1838 68.0744 62.046 56.0087 61.1693 50.0452ZM95.8237 96.5975C97.4388 96.505 99.1461 95.7653 99.6999 95.3955C100.992 94.5634 100.623 94.1011 99.9306 94.0549C99.3307 94.0087 98.3156 94.1936 97.3004 94.3785C96.2852 94.5172 95.3623 94.6096 95.0854 94.4709C94.0241 94.4247 94.2087 93.9162 94.7624 93.5001C96.2391 92.5293 95.7776 91.7897 94.5778 92.2982C93.5165 92.5293 91.7169 94.0087 89.2712 93.5464C87.1947 92.8067 85.8565 91.0963 86.3641 89.3858C92.5013 93.7313 91.7169 86.5658 100.161 88.9235C103.207 89.8018 104.683 89.1546 106.945 87.1668C111.098 83.0987 110.082 74.5001 109.159 72.05C107.175 67.3347 103.207 64.1911 101.776 63.5439C99.1462 62.0184 94.1625 60.5391 91.6246 63.0354C87.8869 66.4563 95.4546 75.8408 102.699 70.8481C99.8845 75.9332 94.5779 71.3566 90.0096 77.7362C89.2713 78.6607 88.5791 80.0476 88.7636 80.741C91.3016 79.724 91.4861 82.1741 94.0702 80.1863C91.9014 84.2544 96.5621 82.9138 95.4085 86.5196C95.3623 84.7629 94.0703 84.4855 93.332 84.6242C91.44 81.1108 87.3332 82.2203 85.7643 83.9308C87.4716 78.6145 90.3326 76.5804 90.2403 73.2057C90.1942 72.0038 89.8711 70.7556 89.5481 69.5999C88.3945 65.8091 88.6714 63.6364 91.0709 61.325C95.5007 58.1352 102.238 60.2155 106.806 64.1911C111.605 68.4442 114.097 73.9454 114.097 80.2787C113.912 87.3979 110.728 96.3201 102.653 97.2447C99.6999 97.522 96.9773 97.106 95.8237 96.5975ZM119.173 100.619C126.417 100.481 136.2 97.1984 140.076 88.831C147.736 73.7605 152.12 54.2982 153.55 38.4417C154.289 30.7678 156.319 14.1255 148.798 8.39309C145.152 5.61937 141.276 5.38823 135.923 7.6072C129.002 11.2593 120.511 19.7191 108.421 28.3639C103.207 31.8773 98.3156 35.0671 94.3472 37.1936C90.9325 38.8116 87.5639 40.106 84.4722 40.9381C89.9634 37.3323 95.1316 33.5877 93.7473 32.5707C81.6574 35.252 70.3982 31.4612 63.2458 37.3323C63.1073 37.5172 63.1535 37.7021 63.2919 37.8408C65.7375 37.7483 68.8293 37.6559 70.1674 37.8408C70.6289 37.887 70.6289 37.9795 70.2136 38.2568C68.8292 39.4125 66.6605 41.2617 65.6914 41.5853C65.3223 41.5853 65.0915 41.4004 64.8147 41.2617C63.7995 40.707 62.9689 39.6899 61.9999 39.2276C61.0308 39.2276 59.2773 39.9211 57.5238 41.123C56.6932 41.7702 56.278 42.6948 56.5548 43.7118C56.8317 44.7289 57.4316 46.0695 58.539 47.5488C58.7697 45.7921 60.7078 45.6997 61.8153 45.561C69.3369 45.3761 78.9811 45.7459 88.5791 47.3177C105.33 49.9065 119.034 60.1692 123.557 72.6972C127.017 81.4807 126.187 91.3736 119.173 100.619ZM125.033 24.0184C112.851 37.1473 119.588 42.6948 124.941 53.4661C127.986 60.2155 130.294 67.5658 129.186 78.8919C127.017 63.1741 118.204 49.9065 113.589 44.0354C108.883 37.3323 107.268 36.7313 125.033 24.0184Z" fill="white"/>
<path fill-rule="evenodd" clip-rule="evenodd" d="M45.0466 111C46.1628 111.091 47.7907 111.183 50.0232 111.366C52.2558 111.183 53.8837 111.091 55 111V152C53.2326 151.771 51.4651 151.634 49.7442 151.634C48.2558 151.634 46.6744 151.771 45 152V111H45.0466Z" fill="white"/>
<path fill-rule="evenodd" clip-rule="evenodd" d="M59 152C60.2027 145.967 61.4054 139.293 62.6081 132.117C63.8108 124.895 64.9209 117.856 65.9386 111C66.3549 111.046 66.8638 111.137 67.4189 111.183C67.974 111.274 68.3903 111.32 68.7141 111.366C70.0555 111.183 70.9807 111.046 71.4432 111C74.8663 117.628 80.0009 126.998 86.847 139.065C88.2347 136.642 89.6687 134.22 91.0564 131.797C92.4441 129.375 93.693 127.272 94.7107 125.398C95.7746 123.524 97.0236 121.284 98.5038 118.542C99.9841 115.845 101.325 113.331 102.574 111C103.037 111.046 103.962 111.183 105.442 111.366C106.136 111.274 107.061 111.183 108.172 111C108.727 115.434 109.189 119.045 109.559 121.924C109.929 124.758 110.346 127.821 110.762 131.066C111.225 134.311 111.733 137.648 112.242 141.03C112.751 144.367 113.306 148.069 114 152C112.196 151.771 110.392 151.634 108.495 151.634C106.645 151.634 104.841 151.771 102.991 152C102.898 149.76 102.713 147.521 102.528 145.19C102.297 142.858 102.112 140.893 101.927 139.293C101.742 137.648 101.418 135.271 101.094 132.208C100.724 129.1 100.4 126.404 100.123 124.164C94.7107 133.808 89.7612 142.996 85.2742 151.634H83.9327H82.7763C81.9436 150.035 80.6485 147.612 78.8907 144.412C77.1329 141.167 75.7915 138.699 74.8663 137.054C73.9412 135.362 72.7847 133.26 71.397 130.7C69.963 128.14 68.8991 126.129 68.1589 124.758C67.7426 127.409 67.2801 130.517 66.8175 134.174C66.3549 137.831 66.0312 141.167 65.7536 144.23C65.4761 147.338 65.3373 149.897 65.291 152C64.6434 151.909 64.1346 151.863 63.7645 151.817C63.3482 151.771 62.8394 151.726 62.1455 151.634C60.7116 151.817 59.6476 151.954 59 152Z" fill="white"/>
<path fill-rule="evenodd" clip-rule="evenodd" d="M114.855 142.779H116.166C116.664 144.713 117.659 146.232 119.152 147.429C120.645 148.626 122.68 149.225 125.258 149.317C127.384 149.317 129.194 148.764 130.641 147.613C132.089 146.463 132.813 144.989 132.813 143.148C132.813 141.49 132.179 140.017 130.868 138.82C129.556 137.577 127.385 136.38 124.218 135.183C121.775 134.216 119.785 133.157 118.202 132.098C116.664 131.04 115.443 129.704 114.628 128.185C113.769 126.666 113.362 124.824 113.362 122.661C113.362 120.405 113.905 118.287 114.99 116.353C116.076 114.42 117.75 112.9 120.102 111.749C122.409 110.598 125.258 110 128.651 110C130.551 110 132.451 110.276 134.351 110.783C136.25 111.289 137.743 111.98 138.829 112.808C138.512 113.729 138.15 114.696 137.788 115.755C137.427 116.768 137.065 117.827 136.703 118.793H135.753C135.255 117.366 134.351 116.123 133.084 115.156C131.817 114.143 130.189 113.637 128.289 113.637C123.449 113.637 121.052 115.617 121.052 119.622C121.052 121.924 122.951 123.904 126.796 125.607L131.637 127.817C135.255 129.428 137.698 131.27 139.01 133.342C140.322 135.413 141 137.669 141 140.109C140.91 142.181 140.412 144.022 139.417 145.634C138.467 147.245 137.11 148.58 135.436 149.685C133.763 150.79 131.863 151.619 129.782 152.171C127.701 152.724 125.62 153 123.449 153C119.333 152.908 115.85 152.033 113 150.422C113.814 147.752 114.493 145.173 114.855 142.779Z" fill="white"/>
<path fill-rule="evenodd" clip-rule="evenodd" d="M140.008 142.779H141.362C141.923 144.713 142.903 146.232 144.444 147.429C145.939 148.626 148.04 149.225 150.749 149.317C152.944 149.317 154.812 148.764 156.259 147.613C157.754 146.463 158.501 144.989 158.501 143.148C158.501 141.49 157.847 140.017 156.493 138.82C155.138 137.577 152.897 136.38 149.628 135.183C147.106 134.216 145.052 133.157 143.464 132.098C141.876 131.04 140.615 129.704 139.728 128.185C138.841 126.666 138.42 124.824 138.42 122.661C138.42 120.405 138.981 118.287 140.101 116.353C141.269 114.42 142.997 112.9 145.378 111.749C147.76 110.598 150.749 110 154.251 110C156.213 110 158.174 110.276 160.135 110.783C162.097 111.289 163.638 111.98 164.758 112.808C164.432 113.729 164.058 114.696 163.684 115.755C163.311 116.768 162.937 117.827 162.61 118.793H161.583C161.069 117.366 160.135 116.123 158.828 115.156C157.52 114.143 155.839 113.637 153.878 113.637C148.881 113.637 146.406 115.617 146.406 119.622C146.406 121.924 148.367 123.904 152.337 125.607L157.333 127.817C161.069 129.428 163.591 131.27 164.945 133.342C166.3 135.413 167 137.669 167 140.109C166.907 142.181 166.393 144.022 165.366 145.634C164.338 147.245 162.984 148.58 161.209 149.685C159.481 150.79 157.567 151.619 155.372 152.171C153.224 152.724 151.076 153 148.834 153C144.585 152.908 140.989 152.033 138 150.422C138.981 147.752 139.634 145.173 140.008 142.779Z" fill="white"/>
<path d="M20.742 220.304C18.7407 220.304 16.8027 220 14.928 219.392C13.0787 218.759 11.622 217.948 10.558 216.96L11.964 213.996C12.9773 214.908 14.2693 215.655 15.84 216.238C17.436 216.795 19.07 217.074 20.742 217.074C22.946 217.074 24.5927 216.707 25.682 215.972C26.7713 215.212 27.316 214.211 27.316 212.97C27.316 212.058 27.012 211.323 26.404 210.766C25.8213 210.183 25.0867 209.74 24.2 209.436C23.3387 209.132 22.11 208.79 20.514 208.41C18.5127 207.929 16.8913 207.447 15.65 206.966C14.434 206.485 13.3827 205.75 12.496 204.762C11.6347 203.749 11.204 202.393 11.204 200.696C11.204 199.277 11.5713 197.998 12.306 196.858C13.066 195.718 14.206 194.806 15.726 194.122C17.246 193.438 19.1333 193.096 21.388 193.096C22.9587 193.096 24.504 193.299 26.024 193.704C27.544 194.109 28.8487 194.692 29.938 195.452L28.684 198.492C27.5693 197.783 26.3787 197.251 25.112 196.896C23.8453 196.516 22.604 196.326 21.388 196.326C19.2347 196.326 17.6133 196.719 16.524 197.504C15.46 198.289 14.928 199.303 14.928 200.544C14.928 201.456 15.232 202.203 15.84 202.786C16.448 203.343 17.1953 203.787 18.082 204.116C18.994 204.42 20.2227 204.749 21.768 205.104C23.7693 205.585 25.378 206.067 26.594 206.548C27.81 207.029 28.8487 207.764 29.71 208.752C30.5967 209.74 31.04 211.07 31.04 212.742C31.04 214.135 30.66 215.415 29.9 216.58C29.14 217.72 27.9873 218.632 26.442 219.316C24.8967 219.975 22.9967 220.304 20.742 220.304ZM36.5916 193.4H40.3916V220H36.5916V193.4ZM71.2312 193.4V220H68.1152L52.1552 200.164V220H48.3552V193.4H51.4712L67.4312 213.236V193.4H71.2312ZM84.4751 196.706H75.3551V193.4H97.3571V196.706H88.2371V220H84.4751V196.706ZM119.28 220L113.542 211.83C112.833 211.881 112.275 211.906 111.87 211.906H105.296V220H101.496V193.4H111.87C115.315 193.4 118.026 194.223 120.002 195.87C121.978 197.517 122.966 199.784 122.966 202.672C122.966 204.724 122.459 206.472 121.446 207.916C120.433 209.36 118.989 210.411 117.114 211.07L123.422 220H119.28ZM111.756 208.676C114.163 208.676 115.999 208.157 117.266 207.118C118.533 206.079 119.166 204.597 119.166 202.672C119.166 200.747 118.533 199.277 117.266 198.264C115.999 197.225 114.163 196.706 111.756 196.706H105.296V208.676H111.756ZM146.053 213.35H131.917L128.991 220H125.077L137.123 193.4H140.885L152.969 220H148.979L146.053 213.35ZM144.723 210.31L138.985 197.276L133.247 210.31H144.723ZM179.813 193.4V220H176.697L160.737 200.164V220H156.937V193.4H160.053L176.013 213.236V193.4H179.813ZM195.527 220.304C193.526 220.304 191.588 220 189.713 219.392C187.864 218.759 186.407 217.948 185.343 216.96L186.749 213.996C187.762 214.908 189.054 215.655 190.625 216.238C192.221 216.795 193.855 217.074 195.527 217.074C197.731 217.074 199.378 216.707 200.467 215.972C201.556 215.212 202.101 214.211 202.101 212.97C202.101 212.058 201.797 211.323 201.189 210.766C200.606 210.183 199.872 209.74 198.985 209.436C198.124 209.132 196.895 208.79 195.299 208.41C193.298 207.929 191.676 207.447 190.435 206.966C189.219 206.485 188.168 205.75 187.281 204.762C186.42 203.749 185.989 202.393 185.989 200.696C185.989 199.277 186.356 197.998 187.091 196.858C187.851 195.718 188.991 194.806 190.511 194.122C192.031 193.438 193.918 193.096 196.173 193.096C197.744 193.096 199.289 193.299 200.809 193.704C202.329 194.109 203.634 194.692 204.723 195.452L203.469 198.492C202.354 197.783 201.164 197.251 199.897 196.896C198.63 196.516 197.389 196.326 196.173 196.326C194.02 196.326 192.398 196.719 191.309 197.504C190.245 198.289 189.713 199.303 189.713 200.544C189.713 201.456 190.017 202.203 190.625 202.786C191.233 203.343 191.98 203.787 192.867 204.116C193.779 204.42 195.008 204.749 196.553 205.104C198.554 205.585 200.163 206.067 201.379 206.548C202.595 207.029 203.634 207.764 204.495 208.752C205.382 209.74 205.825 211.07 205.825 212.742C205.825 214.135 205.445 215.415 204.685 216.58C203.925 217.72 202.772 218.632 201.227 219.316C199.682 219.975 197.782 220.304 195.527 220.304Z" fill="white"/>
<line y1="179.25" x2="213" y2="179.25" stroke="white" stroke-width="1.5"/>
<line y1="232.25" x2="213" y2="232.25" stroke="white" stroke-width="1.5"/>
</svg>
