<svg width="20" height="13" viewBox="0 0 20 13" fill="none" xmlns="http://www.w3.org/2000/svg">
<path d="M0.12709 6.76257C0.305761 7.00699 4.56292 12.7472 10.0001 12.7472C15.4372 12.7472 19.6946 7.00699 19.8731 6.76281C20.0423 6.53093 20.0423 6.21644 19.8731 5.98456C19.6946 5.74015 15.4372 -5.72205e-05 10.0001 -5.72205e-05C4.56292 -5.72205e-05 0.305761 5.74019 0.12709 5.98437C-0.0423641 6.2162 -0.0423641 6.53093 0.12709 6.76257ZM10.0001 1.31862C14.0051 1.31862 17.4739 5.12851 18.5008 6.37402C17.4752 7.62062 14.0137 11.4285 10.0001 11.4285C5.99523 11.4285 2.52666 7.61929 1.4994 6.37312C2.52491 5.12655 5.98644 1.31862 10.0001 1.31862Z" fill="#BC955C"/>
<path d="M9.99998 10.3296C12.1813 10.3296 13.956 8.55486 13.956 6.37353C13.956 4.1922 12.1813 2.41747 9.99998 2.41747C7.81865 2.41747 6.04392 4.1922 6.04392 6.37353C6.04392 8.55486 7.81865 10.3296 9.99998 10.3296ZM9.99998 3.73618C11.4543 3.73618 12.6373 4.91927 12.6373 6.37353C12.6373 7.82779 11.4542 9.01088 9.99998 9.01088C8.54572 9.01088 7.36263 7.82779 7.36263 6.37353C7.36263 4.91927 8.54568 3.73618 9.99998 3.73618Z" fill="#BC955C"/>
</svg>
